{"glyphs":{"0":{"ha":685,"x_min":89,"x_max":610,"o":"m 239 275 l 386 275 q 413 324 403 296 q 419 386 419 356 q 401 479 419 442 q 349 532 382 524 q 336 533 346 533 q 254 472 292 533 q 217 346 217 410 q 222 306 217 321 q 239 275 226 290 m 483 17 l 194 17 q 111 88 138 17 q 89 246 89 146 q 97 375 89 308 q 199 665 115 539 q 392 799 286 799 q 408 799 400 799 q 425 796 417 799 q 458 783 439 792 q 543 704 513 757 q 568 652 557 682 q 586 583 579 622 q 598 519 593 556 q 606 439 603 483 q 610 369 610 403 q 578 181 610 268 q 483 19 547 93 l 483 17 z "},"1":{"ha":392,"x_min":50,"x_max":313,"o":"m 167 799 q 275 613 243 701 q 313 390 313 514 q 309 283 313 332 q 299 196 306 235 q 242 17 285 111 q 224 115 232 69 q 206 200 215 160 q 181 284 194 240 q 151 376 168 328 q 106 511 128 454 q 82 568 96 536 q 50 640 68 600 l 167 799 z "},"2":{"ha":803,"x_min":50,"x_max":807,"o":"m 115 238 l 169 256 q 307 340 271 289 q 328 443 343 393 q 253 538 313 496 q 106 597 196 581 l 50 814 q 160 781 106 799 q 267 744 214 764 q 440 658 372 706 q 531 450 557 572 q 383 242 501 326 q 585 178 482 218 q 747 83 690 136 q 807 17 768 65 q 639 34 719 28 q 483 43 558 40 q 328 42 408 46 q 158 32 247 39 l 115 238 z "},"3":{"ha":640,"x_min":67,"x_max":564,"o":"m 67 799 q 242 757 151 778 q 403 678 332 739 q 483 560 453 635 q 508 488 499 522 q 524 421 518 453 q 488 379 528 393 q 451 365 467 371 q 424 354 435 360 q 462 304 440 332 q 511 243 483 276 q 560 119 564 174 q 529 56 557 79 q 464 25 503 32 q 388 18 404 17 q 358 18 378 18 q 307 17 338 18 q 183 86 251 17 q 79 194 114 157 q 144 195 115 196 q 197 192 174 194 q 308 207 240 186 q 324 235 340 215 q 278 274 307 256 q 246 292 263 283 q 214 308 229 300 q 188 319 197 315 q 175 325 178 324 l 113 479 q 225 483 172 468 q 293 526 275 497 q 279 586 311 553 q 143 643 247 618 l 67 799 z "},"4":{"ha":547,"x_min":4,"x_max":461,"o":"m 160 472 l 297 472 l 297 575 q 217 538 258 567 q 188 510 200 524 q 161 475 174 494 l 160 472 m 297 317 l 235 269 l 21 360 q 11 365 17 360 q 4 375 7 367 l 4 383 q 7 401 4 390 l 108 592 l 322 739 l 350 757 l 440 799 l 461 799 l 461 17 l 297 142 l 297 317 z "},"5":{"ha":713,"x_min":50,"x_max":683,"o":"m 50 792 l 425 790 q 501 781 468 789 q 558 757 535 774 q 613 704 604 726 l 667 564 l 449 564 q 558 442 497 513 q 613 370 589 406 q 651 297 636 335 q 671 156 683 226 q 563 42 658 88 q 424 17 510 17 l 251 17 l 60 215 l 288 215 q 385 222 364 215 q 472 306 467 254 q 439 411 481 358 q 321 508 397 465 q 154 564 240 551 l 50 792 z "},"6":{"ha":581,"x_min":75,"x_max":539,"o":"m 232 261 q 222 253 222 261 q 256 204 222 233 q 311 176 290 176 q 342 203 329 176 q 353 246 353 225 q 342 261 353 261 l 232 261 m 122 614 q 160 678 138 647 q 213 739 183 708 q 350 799 271 799 q 467 742 426 799 q 505 681 486 713 q 539 614 524 650 q 381 628 457 647 q 281 501 303 607 l 388 501 q 467 440 435 501 q 494 318 490 393 q 472 196 497 244 q 396 82 451 146 q 282 17 342 17 q 174 68 221 17 q 107 172 128 118 q 78 393 75 253 q 122 614 81 532 z "},"7":{"ha":497,"x_min":50,"x_max":474,"o":"m 399 772 l 474 563 l 236 17 q 201 75 213 47 q 179 144 190 97 q 172 188 175 168 q 169 228 169 208 q 171 256 169 242 q 175 286 172 271 q 192 349 181 315 l 272 572 l 97 572 l 50 760 q 99 778 75 771 q 144 792 122 786 q 191 797 167 794 q 243 799 215 799 q 321 793 293 799 q 399 772 356 786 z "},"8":{"ha":733,"x_min":50,"x_max":699,"o":"m 390 203 q 391 206 390 206 q 392 210 392 207 q 363 243 392 231 q 301 256 333 256 q 265 251 278 256 q 249 236 251 247 q 279 199 244 217 q 350 179 314 179 q 376 185 367 179 q 390 203 386 189 m 464 486 q 474 529 474 504 q 467 568 474 553 q 447 603 460 590 q 388 606 408 614 q 358 576 367 597 q 349 522 349 554 q 353 456 350 490 q 392 440 371 440 q 429 453 408 440 q 464 486 449 464 m 50 246 l 144 475 l 271 475 q 246 629 243 567 q 276 730 249 692 q 353 784 303 768 q 472 799 404 800 q 505 771 490 786 q 531 740 519 756 q 551 703 542 724 q 569 654 561 682 q 588 546 588 601 q 582 475 588 507 l 699 475 l 603 246 l 564 246 q 476 79 547 144 q 325 17 410 17 q 300 18 313 17 q 276 22 288 19 q 231 39 253 28 q 150 118 179 64 q 110 246 122 167 l 50 246 z "},"9":{"ha":581,"x_min":50,"x_max":514,"o":"m 357 556 q 367 564 367 556 q 333 611 367 583 q 278 640 300 640 q 247 614 260 640 q 235 571 235 586 q 247 556 235 556 l 357 556 m 467 201 q 375 76 433 136 q 239 17 315 17 q 122 75 161 17 q 83 135 101 103 q 50 203 65 167 q 208 189 131 168 q 308 315 286 210 l 201 315 q 122 375 151 315 q 94 497 96 426 q 117 621 92 571 q 193 735 138 671 q 307 799 247 799 q 415 749 369 799 q 481 643 461 697 q 510 424 514 564 q 467 201 508 288 z "}," ":{"ha":496,"x_min":0,"x_max":0,"o":""},"a":{"ha":701,"x_min":-68,"x_max":774,"o":"m 244 224 l 385 224 l 385 329 q 244 224 297 310 m 33 250 l 100 250 l 121 311 l 407 564 l 532 607 l 532 340 q 551 271 532 294 q 582 262 556 265 q 642 256 608 258 q 709 251 675 253 q 763 250 743 250 l 774 250 l 681 15 l 467 15 l 388 67 l 321 15 l -68 15 l 33 250 z "},"A":{"ha":658,"x_min":39,"x_max":729,"o":"m 199 224 l 340 224 l 340 329 q 199 224 251 311 m 635 15 l 421 15 l 343 67 l 275 15 q 257 23 268 18 q 228 35 246 28 q 191 49 210 42 q 153 65 172 57 q 82 94 115 79 l 71 100 q 46 114 49 110 q 39 149 39 118 l 39 163 q 40 197 39 185 q 42 215 40 210 l 75 311 l 361 564 l 486 607 l 486 340 q 506 271 486 294 q 536 262 510 265 q 597 256 563 258 q 665 251 631 253 q 718 250 699 250 l 729 250 l 635 15 z "},"B":{"ha":950,"x_min":-68,"x_max":1013,"o":"m 339 251 l 622 251 q 622 267 622 260 q 621 278 622 274 q 582 336 614 322 q 521 342 554 349 q 454 321 488 336 q 391 285 421 306 q 339 251 361 265 m 574 474 q 686 458 629 482 q 796 371 757 428 q 860 250 836 318 l 1013 250 l 919 15 l 693 15 l 629 15 l -68 15 l 28 251 l 42 251 l 56 251 q 121 314 121 251 l 121 601 l 93 629 q 106 657 100 644 q 117 681 111 669 q 130 701 124 692 q 144 722 136 711 q 164 746 154 735 q 182 765 174 757 q 203 783 193 775 q 228 797 214 790 q 241 773 235 785 q 254 751 247 761 q 285 713 267 729 q 300 698 292 706 q 319 682 308 690 q 358 660 333 671 l 299 600 l 299 351 q 363 386 329 367 q 433 424 397 406 q 504 456 468 442 q 574 474 540 469 m 579 732 l 661 649 l 579 568 l 499 649 l 579 732 z "},"C":{"ha":615,"x_min":-69,"x_max":676,"o":"m 356 -61 l 436 -143 l 356 -225 l 274 -143 l 356 -61 m 28 250 l 82 250 q 129 390 92 326 q 242 489 168 453 q 343 513 289 511 q 444 489 400 515 q 506 432 478 468 q 550 361 535 394 q 408 393 485 401 q 274 338 331 385 q 314 286 285 315 q 364 250 340 260 l 392 250 l 406 250 l 676 250 l 583 15 l 308 15 l 299 15 l 250 15 l -69 15 l 29 250 l 28 250 z "},"D":{"ha":908,"x_min":-62,"x_max":1003,"o":"m 475 325 q 439 340 454 336 q 365 336 400 353 q 326 278 333 322 q 326 267 326 274 q 325 251 325 260 l 608 251 q 552 282 572 271 q 519 301 532 293 q 498 313 507 308 q 475 325 489 318 m 649 351 l 649 600 l 590 660 q 628 682 615 671 q 648 698 639 690 q 664 713 657 706 q 679 731 671 721 q 694 751 688 740 q 708 774 701 763 q 721 797 714 785 q 744 783 733 790 q 765 765 754 775 q 804 722 783 747 q 817 701 811 711 q 831 681 824 692 q 842 657 836 669 q 854 629 847 644 l 828 601 l 828 314 q 892 250 828 250 l 1003 250 l 908 15 l 828 15 l 642 15 l 269 15 l 256 15 l -62 15 l 35 250 l 88 250 q 151 371 111 318 q 261 458 193 429 q 374 474 318 482 q 483 439 433 465 q 523 417 510 424 q 550 403 536 411 q 585 385 564 396 q 649 351 606 374 z "},"E":{"ha":558,"x_min":-64,"x_max":629,"o":"m 536 797 l 458 642 q 321 585 353 617 q 307 524 292 551 q 376 482 324 497 q 489 476 432 467 l 428 324 q 388 307 418 321 q 355 290 371 299 q 324 272 339 282 q 293 250 304 260 l 629 250 l 528 15 l 300 15 l 294 15 l 210 15 l 207 15 l 165 15 l -64 15 l 33 250 l 97 250 q 142 307 122 282 q 178 353 163 332 q 151 363 167 357 q 114 376 135 369 q 76 419 72 393 q 118 558 86 483 q 199 676 149 633 q 358 756 269 738 q 448 776 404 767 q 536 797 492 786 z "},"F":{"ha":596,"x_min":-69,"x_max":658,"o":"m 351 15 l 299 15 l 299 -54 q 303 -171 294 -104 q 340 -274 308 -237 l 213 -376 q 149 -350 176 -379 q 121 -289 121 -322 l 121 -15 l 144 17 l -69 17 l 28 251 l 122 251 l 122 360 q 246 451 172 425 q 401 476 321 476 q 511 460 453 476 q 539 437 525 456 q 565 396 553 418 q 589 353 578 374 q 611 325 600 333 l 471 300 q 442 306 458 303 q 407 315 426 310 q 347 311 368 324 q 336 289 336 304 q 361 250 336 258 q 389 247 367 247 q 436 248 411 247 q 483 250 461 249 q 513 251 506 251 l 658 251 l 557 17 l 351 15 z "},"G":{"ha":718,"x_min":-51,"x_max":790,"o":"m 383 167 q 446 140 415 140 q 465 197 489 140 q 393 254 440 254 q 358 244 368 254 q 351 227 351 238 q 354 206 351 217 q 383 167 360 183 m 276 281 q 297 326 286 306 q 319 363 308 347 q 397 426 354 407 q 492 408 438 444 q 578 290 546 371 q 592 250 585 272 l 790 250 l 696 15 l 610 15 q 603 -21 607 -3 q 596 -57 600 -39 q 518 -189 572 -140 q 482 -217 500 -204 q 446 -239 464 -229 q 361 -256 408 -256 l 226 -256 q 44 -192 107 -256 q -35 -40 -19 -128 q -22 132 -51 46 q 69 261 4 219 q 71 184 69 224 q 75 103 72 144 q 164 -19 82 19 q 263 -37 203 -37 q 364 -29 325 -39 q 454 15 406 -21 l 396 15 q 367 18 381 15 q 339 25 353 21 q 269 85 288 42 q 254 178 250 128 q 262 233 257 213 q 276 281 267 254 m 376 669 l 458 588 l 376 507 l 296 588 l 376 669 m 210 669 l 292 588 l 210 507 l 129 588 l 210 669 z "},"H":{"ha":925,"x_min":-65,"x_max":997,"o":"m 101 250 l 107 250 q 119 251 114 250 q 128 254 124 253 q 147 265 136 254 q 165 286 158 275 q 171 314 171 296 l 171 601 l 143 629 q 156 657 150 644 q 167 681 161 669 q 181 701 174 692 q 194 722 188 711 q 215 746 206 735 q 233 765 224 757 q 278 797 253 785 q 291 773 285 785 q 304 751 297 761 q 319 731 311 740 q 335 713 326 721 q 350 698 342 706 q 369 682 358 690 q 408 660 385 671 l 349 600 l 349 351 l 515 439 q 651 476 586 476 q 811 417 756 476 q 867 282 868 357 q 867 266 867 274 q 864 250 867 258 l 997 250 l 903 15 l 678 15 l 608 15 q 667 296 696 218 q 589 336 647 344 q 492 307 529 328 l 349 229 l 349 139 q 258 15 349 35 l 214 15 l 171 15 l -65 15 l 32 250 l 101 250 z "},"I":{"ha":425,"x_min":-65,"x_max":493,"o":"m 211 797 l 293 714 l 211 633 l 131 714 l 211 797 m 56 15 l -65 15 l 32 250 l 75 250 q 87 251 82 250 q 97 254 92 253 q 115 265 104 254 q 133 286 126 275 q 139 314 139 296 l 139 399 l 113 426 q 124 453 119 442 q 135 476 129 465 q 149 499 142 489 q 163 518 156 510 q 201 561 183 544 q 246 594 219 579 q 259 570 253 582 q 272 547 265 558 q 303 510 288 524 q 339 478 318 492 q 356 467 346 472 q 376 456 365 461 l 317 396 l 317 250 l 493 250 l 400 15 l 226 15 l 183 15 l 139 15 l 56 15 z "},"J":{"ha":794,"x_min":-60,"x_max":853,"o":"m 435 632 q 485 728 453 686 q 568 797 517 772 q 584 758 574 778 q 614 718 594 738 q 692 667 651 679 l 635 599 l 635 250 l 853 250 l 760 15 l 635 15 q 590 -108 633 -44 q 542 -167 567 -142 q 490 -208 518 -193 q 407 -235 464 -226 q 290 -243 353 -243 q 231 -242 260 -243 q 172 -236 201 -240 q 123 -226 144 -232 q 86 -212 101 -221 q -21 -104 15 -178 q -58 47 -58 -32 q -26 196 -60 124 q 75 296 7 265 q 71 274 72 285 q 67 253 69 264 q 93 96 60 176 q 217 15 126 15 l 281 15 l 346 15 q 410 29 386 15 q 461 69 435 40 l 461 606 l 435 632 z "},"K":{"ha":778,"x_min":-56,"x_max":835,"o":"m 69 250 q 136 264 117 253 q 158 361 158 278 l 158 797 l 335 644 l 335 307 q 426 501 386 399 q 563 701 465 601 q 587 724 574 713 q 615 750 600 736 q 647 775 631 764 q 678 797 663 786 q 713 738 688 790 q 740 672 739 683 q 740 576 749 635 l 619 418 l 576 440 q 525 335 538 388 q 518 294 521 315 q 514 250 515 274 l 835 250 l 740 15 l 593 15 q 572 17 588 15 q 551 19 556 18 q 440 57 515 24 q 344 110 369 88 q 240 15 328 15 l -56 15 l 42 250 l 69 250 z "},"L":{"ha":481,"x_min":-58,"x_max":540,"o":"m 328 378 q 340 278 328 303 q 415 251 353 251 l 540 251 l 444 15 l -58 15 l 39 250 l 164 250 l 164 599 l 100 658 q 122 669 111 664 q 140 681 132 674 q 158 695 149 688 q 176 711 167 703 q 194 731 186 722 q 208 750 201 740 q 221 772 215 761 q 232 797 226 783 q 278 765 253 786 q 297 747 286 758 q 319 722 307 736 q 333 701 326 711 q 347 679 340 690 q 357 657 351 669 q 368 629 363 644 l 328 599 l 328 378 z "},"M":{"ha":1035,"x_min":-56,"x_max":1097,"o":"m 490 988 l 571 906 l 490 822 l 408 906 l 490 988 m 815 15 l 707 156 q 714 186 710 167 q 725 233 718 206 q 696 290 738 290 q 657 267 669 290 q 650 244 653 256 q 647 217 647 232 l 647 15 l 496 144 l 496 275 q 432 342 496 343 q 367 271 367 339 l 367 139 q 276 15 367 33 l 229 15 l 190 15 l -56 15 l 42 250 l 125 250 q 190 314 190 250 l 190 414 q 221 476 190 447 q 249 496 236 492 q 286 506 268 506 l 464 506 l 524 461 l 589 504 l 767 504 q 883 268 871 422 q 884 259 883 264 q 885 250 885 254 l 1097 250 l 1004 15 l 815 15 m 413 797 l 492 717 l 411 633 l 329 717 l 413 797 m 575 797 l 658 717 l 576 633 l 496 717 l 575 797 z "},"N":{"ha":781,"x_min":-61,"x_max":854,"o":"m 36 250 l 100 250 l 99 251 q 110 251 104 251 q 124 250 117 251 q 149 254 138 250 q 186 286 169 258 q 192 314 192 296 l 192 414 q 224 476 192 447 q 250 496 239 492 q 288 506 271 506 l 543 504 q 621 410 596 461 q 660 250 656 340 l 854 250 l 760 15 l 592 15 l 483 156 l 496 210 q 489 293 507 260 q 444 343 471 331 q 393 342 419 357 q 369 271 369 326 l 369 139 q 279 15 369 35 l 211 15 l -61 15 l 36 250 m 354 797 l 433 717 l 353 633 l 272 717 l 354 797 m 518 797 l 600 717 l 518 633 l 439 717 l 518 797 z "},"P":{"ha":706,"x_min":-68,"x_max":765,"o":"m 282 235 l 425 235 q 408 290 425 265 q 357 315 389 315 q 303 290 324 315 q 282 235 282 265 m 213 297 q 258 390 229 346 q 392 457 301 457 q 532 369 475 457 q 576 305 556 335 q 617 250 597 275 l 765 250 l 671 15 l 378 15 l 321 15 l 310 15 q 287 14 297 15 q 265 10 276 13 q 224 -53 224 -3 q 224 -107 224 -85 q 226 -140 225 -129 q 229 -175 228 -153 q 232 -229 231 -197 l 128 -375 l 76 -106 q 68 -29 68 -68 q 69 -8 68 -18 q 71 14 69 3 l -68 14 l 29 249 l 201 249 q 206 269 203 256 q 213 297 210 283 z "},"Q":{"ha":644,"x_min":-60,"x_max":703,"o":"m 300 319 q 251 293 272 319 q 240 271 244 286 q 236 240 236 256 l 331 240 q 334 263 333 251 q 333 290 335 275 q 300 319 329 319 m 218 458 q 344 518 269 518 q 438 447 413 518 q 459 381 450 411 q 474 324 468 350 q 480 286 476 304 q 488 250 483 268 l 703 250 l 608 15 l 544 15 q 561 -46 553 -15 q 578 -108 569 -76 l 453 -253 q 397 -122 418 -189 q 368 15 375 -56 l 272 15 l 254 15 l 208 15 l -60 15 l 38 250 l 129 250 q 159 361 139 306 q 218 458 179 417 z "},"O":{"ha":660,"x_min":-60,"x_max":726,"o":"m 38 250 l 125 250 q 133 279 128 260 q 144 311 139 299 q 214 425 172 381 q 375 501 286 501 q 475 471 435 501 q 547 393 517 443 q 570 342 561 369 q 582 286 579 315 q 584 267 583 276 q 583 250 585 258 l 726 250 l 632 15 l -60 15 l 38 250 m 321 328 q 286 319 301 328 q 260 299 271 311 q 235 244 240 275 l 408 244 q 378 303 400 276 q 321 328 357 328 z "},"S":{"ha":686,"x_min":-57,"x_max":757,"o":"m 338 250 l 90 489 l 151 624 l 714 797 l 583 576 l 318 510 l 581 250 l 757 250 l 664 15 l -57 15 l 40 250 l 338 250 z "},"T":{"ha":572,"x_min":-61,"x_max":642,"o":"m 317 389 q 328 283 317 317 q 404 251 340 251 l 642 251 l 546 15 l -61 15 l 36 250 l 151 250 l 151 511 q 110 524 129 518 q 75 535 92 529 q -6 526 42 544 q -17 522 -12 524 q -24 517 -21 519 q -9 547 -17 532 q 6 578 -1 563 q 47 632 22 607 q 63 646 54 639 q 82 660 71 653 q 122 679 104 675 q 179 728 147 683 q 219 797 210 774 q 304 726 272 769 q 357 629 339 678 l 354 628 q 451 618 408 615 l 563 626 l 500 469 q 487 468 497 469 q 460 464 476 467 q 317 468 393 456 l 317 389 z "},"U":{"ha":657,"x_min":-72,"x_max":726,"o":"m 113 374 l 265 503 l 265 306 q 293 254 265 275 q 354 228 318 235 q 414 233 383 222 q 442 276 442 243 q 440 299 442 288 q 435 322 439 311 l 422 368 l 532 506 q 596 250 606 396 l 726 250 l 632 15 l 485 15 l 482 14 l 272 14 l 225 14 l -72 14 l 25 249 l 111 249 l 113 374 m 272 797 l 351 717 l 271 633 l 189 717 l 272 797 m 436 797 l 518 717 l 436 633 l 357 717 l 436 797 z "},"V":{"ha":711,"x_min":-60,"x_max":776,"o":"m -60 15 l 38 250 l 113 250 q -1 372 69 358 l 144 504 q 267 382 251 458 q 310 236 279 303 l 404 399 q 424 457 424 433 q 385 506 424 483 l 494 503 q 622 453 560 503 q 633 328 683 404 l 581 250 l 776 250 l 682 15 l -60 15 z "},"W":{"ha":832,"x_min":-65,"x_max":900,"o":"m 72 382 l 225 506 l 225 250 l 346 250 l 346 379 l 500 506 l 500 306 q 510 256 500 274 q 549 232 522 232 q 572 244 564 232 q 579 276 579 261 q 578 294 579 288 q 576 299 576 296 q 575 304 575 301 q 574 313 575 307 l 560 368 l 669 506 q 735 297 735 408 q 734 274 735 286 q 732 250 733 263 l 900 250 l 807 15 q 715 15 757 15 q 633 15 674 15 q 550 14 592 14 q 460 14 508 14 l 410 56 l 361 14 l 267 14 l 163 14 l -65 14 l 32 249 l 74 249 l 72 382 m 400 988 l 481 906 l 400 822 l 319 906 l 400 988 m 322 797 l 401 717 l 321 633 l 239 717 l 322 797 m 486 797 l 568 717 l 486 633 l 406 717 l 486 797 z "},"X":{"ha":700,"x_min":-72,"x_max":778,"o":"m 25 250 l 203 250 l 299 349 l 194 450 l 176 426 l 22 579 q 26 636 22 615 q 32 659 29 647 q 42 686 35 671 q 71 735 56 715 q 87 754 78 746 q 107 771 96 763 l 389 489 l 433 554 q 419 567 422 563 q 408 586 410 579 q 400 608 403 596 l 400 636 l 518 799 q 531 771 525 781 q 537 760 533 767 q 546 744 540 754 q 560 726 553 735 q 576 710 568 718 q 592 696 583 703 q 613 681 601 689 l 649 653 l 464 389 l 532 250 l 778 250 l 685 15 l 479 15 q 460 115 468 74 q 449 179 451 156 q 356 306 443 229 q 311 240 313 246 q 381 235 308 235 l 307 15 l 282 15 l 272 15 l 271 15 l 269 15 l 268 15 l 267 15 l 265 15 l 264 15 l 263 15 l 261 15 l 260 15 l 258 15 l -72 15 l 25 250 z "},"Y":{"ha":506,"x_min":-75,"x_max":621,"o":"m -75 15 l 22 250 l 175 250 l 269 347 l 165 449 l 147 425 l -6 576 q -5 609 -6 596 q -3 633 -4 622 q 3 657 0 644 q 13 685 7 669 q 26 710 19 699 q 42 733 33 722 q 79 769 57 754 l 360 488 l 406 553 q 390 565 394 560 q 384 575 386 571 q 379 583 382 579 q 372 607 372 597 q 371 621 371 614 q 371 635 371 628 l 489 797 q 496 781 493 788 q 501 769 499 774 q 508 758 504 765 q 518 743 511 751 q 532 724 525 733 q 549 707 539 715 q 583 678 563 693 l 621 651 q 578 603 604 632 q 518 538 553 575 q 453 464 485 501 q 392 389 421 426 q 308 254 333 311 l 306 250 l 572 250 l 479 15 l -75 15 z "},"Z":{"ha":744,"x_min":-78,"x_max":799,"o":"m 742 611 l 636 418 q 586 408 617 415 q 522 388 556 400 q 455 359 488 375 q 399 325 422 343 q 366 288 375 307 q 371 250 357 269 l 799 250 l 706 15 l 336 15 l 185 15 l -78 15 l 19 250 l 132 250 q 171 294 146 275 q 225 333 196 314 q 285 372 254 351 q 342 418 315 392 l 124 418 l 178 522 q 197 547 183 533 q 233 576 210 561 q 367 610 279 607 l 742 611 z "},"!":{"ha":525,"x_min":131,"x_max":403,"o":"m 275 232 l 382 125 l 275 17 l 168 125 l 275 232 m 265 1035 q 299 983 285 1007 q 322 936 313 958 q 364 824 340 896 q 381 765 374 790 q 390 724 388 740 q 403 628 403 674 q 401 594 403 599 q 397 564 401 597 q 356 435 385 486 q 275 344 324 381 q 272 411 275 379 q 264 475 269 443 q 251 528 258 497 q 233 599 244 558 q 211 672 222 639 q 189 731 200 704 q 131 851 169 781 l 265 1035 z "},"(":{"ha":514,"x_min":140,"x_max":394,"o":"m 394 883 l 394 878 q 322 646 343 754 q 307 530 313 593 q 301 392 301 467 q 307 267 301 325 q 322 158 313 208 q 394 -67 343 56 q 207 115 275 -8 q 140 406 140 240 q 207 699 140 574 q 394 883 274 825 z "},")":{"ha":507,"x_min":140,"x_max":394,"o":"m 140 883 q 328 699 261 825 q 394 406 394 574 q 328 115 394 240 q 140 -67 260 -8 q 213 158 190 56 q 227 267 222 208 q 232 392 232 325 q 227 530 232 467 q 213 646 222 593 q 140 878 192 754 l 140 883 z "},"/":{"ha":653,"x_min":129,"x_max":553,"o":"m 526 931 l 553 719 l 154 17 q 143 26 146 39 q 140 22 142 21 q 138 32 139 24 q 132 71 133 49 q 129 122 131 93 q 138 229 129 176 q 157 304 143 265 q 165 323 161 314 q 172 343 168 332 q 181 363 176 353 q 190 383 185 372 l 526 931 z "},":":{"ha":425,"x_min":139,"x_max":300,"o":"m 219 182 l 300 100 l 219 17 l 139 100 l 219 182 m 219 525 l 300 443 l 219 360 l 139 443 l 219 525 l 219 525 z "},";":{"ha":428,"x_min":115,"x_max":329,"o":"m 218 106 l 115 236 l 213 321 l 278 265 q 314 228 303 242 q 329 179 329 204 q 322 143 329 161 q 310 126 318 136 q 292 103 303 115 l 199 17 l 218 106 m 231 368 l 150 450 l 231 533 l 313 450 l 231 368 z "},"<":{"ha":590,"x_min":50,"x_max":521,"o":"m 521 550 l 521 547 q 499 523 510 533 q 476 504 488 513 q 419 467 451 485 q 387 449 400 456 q 365 440 374 443 q 340 429 354 435 q 307 418 325 424 q 333 405 319 411 q 360 392 346 399 q 386 376 374 383 q 410 361 399 368 q 442 340 428 350 q 469 321 457 329 q 494 299 482 310 q 521 276 507 289 l 419 206 q 349 268 383 239 q 312 294 332 281 q 268 322 292 307 q 163 378 213 357 q 112 398 140 388 q 50 419 83 408 q 110 440 83 431 q 158 460 138 450 q 206 481 181 469 q 263 508 232 493 q 314 535 292 524 q 351 557 336 547 q 394 584 374 571 q 433 611 414 597 l 521 550 z "},">":{"ha":568,"x_min":50,"x_max":521,"o":"m 50 550 l 138 611 q 221 557 175 583 q 258 535 236 547 q 308 508 279 524 q 365 481 339 493 q 413 460 390 469 q 460 440 433 450 q 521 419 488 431 q 459 398 488 408 q 408 378 431 388 q 359 353 385 367 q 303 322 333 340 q 259 294 279 307 q 222 268 239 281 q 151 206 186 239 l 50 276 q 103 321 75 300 q 128 340 114 329 q 161 361 143 350 q 185 376 172 368 q 211 392 197 383 q 238 405 225 399 q 264 418 251 411 q 231 429 246 424 q 206 440 217 435 q 184 449 197 443 q 151 467 171 456 q 94 504 119 485 q 72 523 83 513 q 50 547 61 533 l 50 550 z "},"=":{"ha":740,"x_min":78,"x_max":638,"o":"m 638 208 q 593 183 613 193 q 558 168 574 174 q 475 154 522 154 l 465 154 l 457 154 q 382 167 421 154 q 306 190 336 182 q 258 197 275 197 q 78 178 172 197 q 125 219 101 201 q 169 250 149 238 q 274 281 211 272 l 303 282 q 382 267 336 282 q 475 235 442 246 q 517 222 508 224 q 542 217 528 219 q 576 213 557 215 q 638 208 606 208 m 638 399 q 558 358 585 368 q 475 344 522 344 l 465 344 l 457 344 q 382 357 421 344 q 258 388 292 388 q 169 383 214 388 q 78 368 124 379 q 169 440 126 417 q 274 471 214 463 q 288 472 281 472 q 303 472 296 472 q 382 457 336 472 q 475 425 442 436 q 517 413 508 414 q 542 408 528 410 q 576 403 557 406 q 638 399 601 399 z "},"?":{"ha":381,"x_min":38,"x_max":396,"o":"m 132 196 l 225 100 l 132 4 l 38 100 l 132 196 m 57 629 l 39 751 q 38 763 38 758 q 38 771 38 768 q 103 869 38 836 q 231 897 161 897 q 344 839 296 897 q 394 700 394 782 q 378 593 396 633 q 334 526 361 553 q 274 480 307 500 q 209 434 240 460 q 153 370 178 408 q 117 269 128 332 l 96 457 q 94 463 96 460 q 93 474 93 467 q 99 497 93 486 q 115 519 104 508 q 190 581 135 539 q 212 599 201 590 q 236 619 222 608 q 285 676 285 661 q 283 682 285 681 q 267 693 279 692 q 235 699 254 699 q 206 697 219 699 q 176 692 192 694 q 139 678 156 685 q 111 668 122 672 q 57 629 86 653 z "},"_":{"ha":582,"x_min":-81,"x_max":649,"o":"m 17 250 l 649 250 l 556 15 l -81 15 l 17 250 z "},"R":{"ha":522,"x_min":-51,"x_max":581,"o":"m 47 250 l 110 250 l 63 464 l 156 560 l 194 535 l 224 560 l 456 560 q 532 521 518 560 q 536 429 549 481 q 511 372 529 403 q 479 317 493 342 q 463 361 479 350 q 413 372 444 372 l 268 372 l 290 250 l 581 250 l 488 15 l -51 15 l 47 250 z "},"d":{"ha":908,"x_min":-62,"x_max":1003,"o":"m 475 325 q 439 340 454 336 q 365 336 400 353 q 326 278 333 322 q 326 267 326 274 q 325 251 325 260 l 608 251 q 552 282 572 271 q 519 301 532 293 q 498 313 507 308 q 475 325 489 318 m 649 351 l 649 600 l 590 660 q 628 682 615 671 q 648 698 639 690 q 664 713 657 706 q 679 731 671 721 q 694 751 688 740 q 708 774 701 763 q 721 797 714 785 q 744 783 733 790 q 765 765 754 775 q 804 722 783 747 q 817 701 811 711 q 831 681 824 692 q 842 657 836 669 q 854 629 847 644 l 828 601 l 828 314 q 892 250 828 250 l 1003 250 l 908 15 l 828 15 l 642 15 l 269 15 l 256 15 l -62 15 l 35 250 l 88 250 q 151 371 111 318 q 261 458 193 429 q 374 474 318 482 q 483 439 433 465 q 523 417 510 424 q 550 403 536 411 q 585 385 564 396 q 649 351 606 374 z "},"f":{"ha":596,"x_min":-69,"x_max":658,"o":"m 351 15 l 299 15 l 299 -54 q 303 -171 294 -104 q 340 -274 308 -237 l 213 -376 q 149 -350 176 -379 q 121 -289 121 -322 l 121 -15 l 144 17 l -69 17 l 28 251 l 122 251 l 122 360 q 246 451 172 425 q 401 476 321 476 q 511 460 453 476 q 539 437 525 456 q 565 396 553 418 q 589 353 578 374 q 611 325 600 333 l 471 300 q 442 306 458 303 q 407 315 426 310 q 347 311 368 324 q 336 289 336 304 q 361 250 336 258 q 389 247 367 247 q 436 248 411 247 q 483 250 461 249 q 513 251 506 251 l 658 251 l 557 17 l 351 15 z "},"g":{"ha":718,"x_min":-51,"x_max":790,"o":"m 383 167 q 446 140 415 140 q 465 197 489 140 q 393 254 440 254 q 358 244 368 254 q 351 227 351 238 q 354 206 351 217 q 383 167 360 183 m 276 281 q 297 326 286 306 q 319 363 308 347 q 397 426 354 407 q 492 408 438 444 q 578 290 546 371 q 592 250 585 272 l 790 250 l 696 15 l 610 15 q 603 -21 607 -3 q 596 -57 600 -39 q 518 -189 572 -140 q 482 -217 500 -204 q 446 -239 464 -229 q 361 -256 408 -256 l 226 -256 q 44 -192 107 -256 q -35 -40 -19 -128 q -22 132 -51 46 q 69 261 4 219 q 71 184 69 224 q 75 103 72 144 q 164 -19 82 19 q 263 -37 203 -37 q 364 -29 325 -39 q 454 15 406 -21 l 396 15 q 367 18 381 15 q 339 25 353 21 q 269 85 288 42 q 254 178 250 128 q 262 233 257 213 q 276 281 267 254 m 376 669 l 458 588 l 376 507 l 296 588 l 376 669 m 210 669 l 292 588 l 210 507 l 129 588 l 210 669 z "},"h":{"ha":925,"x_min":-65,"x_max":997,"o":"m 101 250 l 107 250 q 119 251 114 250 q 128 254 124 253 q 147 265 136 254 q 165 286 158 275 q 171 314 171 296 l 171 601 l 143 629 q 156 657 150 644 q 167 681 161 669 q 181 701 174 692 q 194 722 188 711 q 215 746 206 735 q 233 765 224 757 q 278 797 253 785 q 291 773 285 785 q 304 751 297 761 q 319 731 311 740 q 335 713 326 721 q 350 698 342 706 q 369 682 358 690 q 408 660 385 671 l 349 600 l 349 351 l 515 439 q 651 476 586 476 q 811 417 756 476 q 867 282 868 357 q 867 266 867 274 q 864 250 867 258 l 997 250 l 903 15 l 678 15 l 608 15 q 667 296 696 218 q 589 336 647 344 q 492 307 529 328 l 349 229 l 349 139 q 258 15 349 35 l 214 15 l 171 15 l -65 15 l 32 250 l 101 250 z "},"i":{"ha":425,"x_min":-65,"x_max":493,"o":"m 211 797 l 293 714 l 211 633 l 131 714 l 211 797 m 56 15 l -65 15 l 32 250 l 75 250 q 87 251 82 250 q 97 254 92 253 q 115 265 104 254 q 133 286 126 275 q 139 314 139 296 l 139 399 l 113 426 q 124 453 119 442 q 135 476 129 465 q 149 499 142 489 q 163 518 156 510 q 201 561 183 544 q 246 594 219 579 q 259 570 253 582 q 272 547 265 558 q 303 510 288 524 q 339 478 318 492 q 356 467 346 472 q 376 456 365 461 l 317 396 l 317 250 l 493 250 l 400 15 l 226 15 l 183 15 l 139 15 l 56 15 z "},"k":{"ha":778,"x_min":-56,"x_max":835,"o":"m 69 250 q 136 264 117 253 q 158 361 158 278 l 158 797 l 335 644 l 335 307 q 426 501 386 399 q 563 701 465 601 q 587 724 574 713 q 615 750 600 736 q 647 775 631 764 q 678 797 663 786 q 713 738 688 790 q 740 672 739 683 q 740 576 749 635 l 619 418 l 576 440 q 525 335 538 388 q 518 294 521 315 q 514 250 515 274 l 835 250 l 740 15 l 593 15 q 572 17 588 15 q 551 19 556 18 q 440 57 515 24 q 344 110 369 88 q 240 15 328 15 l -56 15 l 42 250 l 69 250 z "},"m":{"ha":1035,"x_min":-56,"x_max":1097,"o":"m 490 988 l 571 906 l 490 822 l 408 906 l 490 988 m 815 15 l 707 156 q 714 186 710 167 q 725 233 718 206 q 696 290 738 290 q 657 267 669 290 q 650 244 653 256 q 647 217 647 232 l 647 15 l 496 144 l 496 275 q 432 342 496 343 q 367 271 367 339 l 367 139 q 276 15 367 33 l 229 15 l 190 15 l -56 15 l 42 250 l 125 250 q 190 314 190 250 l 190 414 q 221 476 190 447 q 249 496 236 492 q 286 506 268 506 l 464 506 l 524 461 l 589 504 l 767 504 q 883 268 871 422 q 884 259 883 264 q 885 250 885 254 l 1097 250 l 1004 15 l 815 15 m 413 797 l 492 717 l 411 633 l 329 717 l 413 797 m 575 797 l 658 717 l 576 633 l 496 717 l 575 797 z "},"n":{"ha":781,"x_min":-61,"x_max":854,"o":"m 36 250 l 100 250 l 99 251 q 110 251 104 251 q 124 250 117 251 q 149 254 138 250 q 186 286 169 258 q 192 314 192 296 l 192 414 q 224 476 192 447 q 250 496 239 492 q 288 506 271 506 l 543 504 q 621 410 596 461 q 660 250 656 340 l 854 250 l 760 15 l 592 15 l 483 156 l 496 210 q 489 293 507 260 q 444 343 471 331 q 393 342 419 357 q 369 271 369 326 l 369 139 q 279 15 369 35 l 211 15 l -61 15 l 36 250 m 354 797 l 433 717 l 353 633 l 272 717 l 354 797 m 518 797 l 600 717 l 518 633 l 439 717 l 518 797 z "},"o":{"ha":660,"x_min":-60,"x_max":726,"o":"m 38 250 l 125 250 q 133 279 128 260 q 144 311 139 299 q 214 425 172 381 q 375 501 286 501 q 475 471 435 501 q 547 393 517 443 q 570 342 561 369 q 582 286 579 315 q 584 267 583 276 q 583 250 585 258 l 726 250 l 632 15 l -60 15 l 38 250 m 321 328 q 286 319 301 328 q 260 299 271 311 q 235 244 240 275 l 408 244 q 378 303 400 276 q 321 328 357 328 z "},"p":{"ha":706,"x_min":-68,"x_max":765,"o":"m 282 235 l 425 235 q 408 290 425 265 q 357 315 389 315 q 303 290 324 315 q 282 235 282 265 m 213 297 q 258 390 229 346 q 392 457 301 457 q 532 369 475 457 q 576 305 556 335 q 617 250 597 275 l 765 250 l 671 15 l 378 15 l 321 15 l 310 15 q 287 14 297 15 q 265 10 276 13 q 224 -53 224 -3 q 224 -107 224 -85 q 226 -140 225 -129 q 229 -175 228 -153 q 232 -229 231 -197 l 128 -375 l 76 -106 q 68 -29 68 -68 q 69 -8 68 -18 q 71 14 69 3 l -68 14 l 29 249 l 201 249 q 206 269 203 256 q 213 297 210 283 z "},"q":{"ha":644,"x_min":-60,"x_max":703,"o":"m 300 319 q 251 293 272 319 q 240 271 244 286 q 236 240 236 256 l 331 240 q 334 263 333 251 q 333 290 335 275 q 300 319 329 319 m 218 458 q 344 518 269 518 q 438 447 413 518 q 459 381 450 411 q 474 324 468 350 q 480 286 476 304 q 488 250 483 268 l 703 250 l 608 15 l 544 15 q 561 -46 553 -15 q 578 -108 569 -76 l 453 -253 q 397 -122 418 -189 q 368 15 375 -56 l 272 15 l 254 15 l 208 15 l -60 15 l 38 250 l 129 250 q 159 361 139 306 q 218 458 179 417 z "},"r":{"ha":522,"x_min":-51,"x_max":581,"o":"m 47 250 l 110 250 l 63 464 l 156 560 l 194 535 l 224 560 l 456 560 q 532 521 518 560 q 536 429 549 481 q 511 372 529 403 q 479 317 493 342 q 463 361 479 350 q 413 372 444 372 l 268 372 l 290 250 l 581 250 l 488 15 l -51 15 l 47 250 z "},"s":{"ha":686,"x_min":-57,"x_max":757,"o":"m 338 250 l 90 489 l 151 624 l 714 797 l 583 576 l 318 510 l 581 250 l 757 250 l 664 15 l -57 15 l 40 250 l 338 250 z "},"t":{"ha":572,"x_min":-61,"x_max":642,"o":"m 317 389 q 328 283 317 317 q 404 251 340 251 l 642 251 l 546 15 l -61 15 l 36 250 l 151 250 l 151 511 q 110 524 129 518 q 75 535 92 529 q -6 526 42 544 q -17 522 -12 524 q -24 517 -21 519 q -9 547 -17 532 q 6 578 -1 563 q 47 632 22 607 q 63 646 54 639 q 82 660 71 653 q 122 679 104 675 q 179 728 147 683 q 219 797 210 774 q 304 726 272 769 q 357 629 339 678 l 354 628 q 451 618 408 615 l 563 626 l 500 469 q 487 468 497 469 q 460 464 476 467 q 317 468 393 456 l 317 389 z "},"u":{"ha":657,"x_min":-72,"x_max":726,"o":"m 113 374 l 265 503 l 265 306 q 293 254 265 275 q 354 228 318 235 q 414 233 383 222 q 442 276 442 243 q 440 299 442 288 q 435 322 439 311 l 422 368 l 532 506 q 596 250 606 396 l 726 250 l 632 15 l 485 15 l 482 14 l 272 14 l 225 14 l -72 14 l 25 249 l 111 249 l 113 374 m 272 797 l 351 717 l 271 633 l 189 717 l 272 797 m 436 797 l 518 717 l 436 633 l 357 717 l 436 797 z "},"v":{"ha":699,"x_min":-71,"x_max":765,"o":"m -71 15 l 26 250 l 101 250 q -12 372 58 358 l 133 504 q 256 382 240 458 q 299 236 268 303 l 393 399 q 413 457 413 433 q 374 506 413 483 l 483 503 q 611 453 549 503 q 622 328 672 404 l 569 250 l 765 250 l 671 15 l -71 15 z "},"w":{"ha":832,"x_min":-65,"x_max":900,"o":"m 72 382 l 225 506 l 225 250 l 346 250 l 346 379 l 500 506 l 500 306 q 510 256 500 274 q 549 232 522 232 q 572 244 564 232 q 579 276 579 261 q 578 294 579 288 q 576 299 576 296 q 575 304 575 301 q 574 313 575 307 l 560 368 l 669 506 q 735 297 735 408 q 734 274 735 286 q 732 250 733 263 l 900 250 l 807 15 q 715 15 757 15 q 633 15 674 15 q 550 14 592 14 q 460 14 508 14 l 410 56 l 361 14 l 267 14 l 163 14 l -65 14 l 32 249 l 74 249 l 72 382 m 400 988 l 481 906 l 400 822 l 319 906 l 400 988 m 322 797 l 401 717 l 321 633 l 239 717 l 322 797 m 486 797 l 568 717 l 486 633 l 406 717 l 486 797 z "},"x":{"ha":700,"x_min":-72,"x_max":778,"o":"m 25 250 l 203 250 l 299 349 l 194 450 l 176 426 l 22 579 q 26 636 22 615 q 32 659 29 647 q 42 686 35 671 q 71 735 56 715 q 87 754 78 746 q 107 771 96 763 l 389 489 l 433 554 q 419 567 422 563 q 408 586 410 579 q 400 608 403 596 l 400 636 l 518 799 q 531 771 525 781 q 537 760 533 767 q 546 744 540 754 q 560 726 553 735 q 576 710 568 718 q 592 696 583 703 q 613 681 601 689 l 649 653 l 464 389 l 532 250 l 778 250 l 685 15 l 479 15 q 460 115 468 74 q 449 179 451 156 q 356 306 443 229 q 311 240 313 246 q 381 235 308 235 l 307 15 l 282 15 l 272 15 l 271 15 l 269 15 l 268 15 l 267 15 l 265 15 l 264 15 l 263 15 l 261 15 l 260 15 l 258 15 l -72 15 l 25 250 z "},"y":{"ha":506,"x_min":-75,"x_max":621,"o":"m -75 15 l 22 250 l 175 250 l 269 347 l 165 449 l 147 425 l -6 576 q -5 609 -6 596 q -3 633 -4 622 q 3 657 0 644 q 13 685 7 669 q 26 710 19 699 q 42 733 33 722 q 79 769 57 754 l 360 488 l 406 553 q 390 565 394 560 q 384 575 386 571 q 379 583 382 579 q 372 607 372 597 q 371 621 371 614 q 371 635 371 628 l 489 797 q 496 781 493 788 q 501 769 499 774 q 508 758 504 765 q 518 743 511 751 q 532 724 525 733 q 549 707 539 715 q 583 678 563 693 l 621 651 q 578 603 604 632 q 518 538 553 575 q 453 464 485 501 q 392 389 421 426 q 308 254 333 311 l 306 250 l 572 250 l 479 15 l -75 15 z "},"z":{"ha":744,"x_min":-78,"x_max":799,"o":"m 742 611 l 636 418 q 586 408 617 415 q 522 388 556 400 q 455 359 488 375 q 399 325 422 343 q 366 288 375 307 q 371 250 357 269 l 799 250 l 706 15 l 336 15 l 185 15 l -78 15 l 19 250 l 132 250 q 171 294 146 275 q 225 333 196 314 q 285 372 254 351 q 342 418 315 392 l 124 418 l 178 522 q 197 547 183 533 q 233 576 210 561 q 367 610 279 607 l 742 611 z "},"b":{"ha":950,"x_min":-68,"x_max":1013,"o":"m 339 251 l 622 251 q 622 267 622 260 q 621 278 622 274 q 582 336 614 322 q 521 342 554 349 q 454 321 488 336 q 391 285 421 306 q 339 251 361 265 m 574 474 q 686 458 629 482 q 796 371 757 428 q 860 250 836 318 l 1013 250 l 919 15 l 693 15 l 629 15 l -68 15 l 28 251 l 42 251 l 56 251 q 121 314 121 251 l 121 601 l 93 629 q 106 657 100 644 q 117 681 111 669 q 130 701 124 692 q 144 722 136 711 q 164 746 154 735 q 182 765 174 757 q 203 783 193 775 q 228 797 214 790 q 241 773 235 785 q 254 751 247 761 q 285 713 267 729 q 300 698 292 706 q 319 682 308 690 q 358 660 333 671 l 299 600 l 299 351 q 363 386 329 367 q 433 424 397 406 q 504 456 468 442 q 574 474 540 469 m 579 732 l 661 649 l 579 568 l 499 649 l 579 732 z "},"c":{"ha":615,"x_min":-69,"x_max":676,"o":"m 356 -61 l 436 -143 l 356 -225 l 274 -143 l 356 -61 m 28 250 l 82 250 q 129 390 92 326 q 242 489 168 453 q 343 513 289 511 q 444 489 400 515 q 506 432 478 468 q 550 361 535 394 q 408 393 485 401 q 274 338 331 385 q 314 286 285 315 q 364 250 340 260 l 392 250 l 406 250 l 676 250 l 583 15 l 308 15 l 299 15 l 250 15 l -69 15 l 29 250 l 28 250 z "},"e":{"ha":558,"x_min":-64,"x_max":629,"o":"m 536 797 l 458 642 q 321 585 353 617 q 307 524 292 551 q 376 482 324 497 q 489 476 432 467 l 428 324 q 388 307 418 321 q 355 290 371 299 q 324 272 339 282 q 293 250 304 260 l 629 250 l 528 15 l 300 15 l 294 15 l 210 15 l 207 15 l 165 15 l -64 15 l 33 250 l 97 250 q 142 307 122 282 q 178 353 163 332 q 151 363 167 357 q 114 376 135 369 q 76 419 72 393 q 118 558 86 483 q 199 676 149 633 q 358 756 269 738 q 448 776 404 767 q 536 797 492 786 z "},"j":{"ha":794,"x_min":-60,"x_max":853,"o":"m 435 632 q 485 728 453 686 q 568 797 517 772 q 584 758 574 778 q 614 718 594 738 q 692 667 651 679 l 635 599 l 635 250 l 853 250 l 760 15 l 635 15 q 590 -108 633 -44 q 542 -167 567 -142 q 490 -208 518 -193 q 407 -235 464 -226 q 290 -243 353 -243 q 231 -242 260 -243 q 172 -236 201 -240 q 123 -226 144 -232 q 86 -212 101 -221 q -21 -104 15 -178 q -58 47 -58 -32 q -26 196 -60 124 q 75 296 7 265 q 71 274 72 285 q 67 253 69 264 q 93 96 60 176 q 217 15 126 15 l 281 15 l 346 15 q 410 29 386 15 q 461 69 435 40 l 461 606 l 435 632 z "},"l":{"ha":481,"x_min":-58,"x_max":540,"o":"m 328 378 q 340 278 328 303 q 415 251 353 251 l 540 251 l 444 15 l -58 15 l 39 250 l 164 250 l 164 599 l 100 658 q 122 669 111 664 q 140 681 132 674 q 158 695 149 688 q 176 711 167 703 q 194 731 186 722 q 208 750 201 740 q 221 772 215 761 q 232 797 226 783 q 278 765 253 786 q 297 747 286 758 q 319 722 307 736 q 333 701 326 711 q 347 679 340 690 q 357 657 351 669 q 368 629 363 644 l 328 599 l 328 378 z "}}}
